<?xml version="1.0" encoding="UTF-8" standalone="no"?>
<svg
   version="1.1"
   width="1000"
   height="1000"
   id="svg7"
   sodipodi:docname="mmm.svg"
   inkscape:version="1.4.2 (1:1.4.2+202505120738+ebf0e940d0)"
   xmlns:inkscape="http://www.inkscape.org/namespaces/inkscape"
   xmlns:sodipodi="http://sodipodi.sourceforge.net/DTD/sodipodi-0.dtd"
   xmlns="http://www.w3.org/2000/svg"
   xmlns:svg="http://www.w3.org/2000/svg">
  <defs
     id="defs7" />
  <sodipodi:namedview
     id="namedview7"
     pagecolor="#505050"
     bordercolor="#eeeeee"
     borderopacity="1"
     inkscape:showpageshadow="0"
     inkscape:pageopacity="0"
     inkscape:pagecheckerboard="0"
     inkscape:deskcolor="#505050"
     inkscape:zoom="0.18175"
     inkscape:cx="-607.97799"
     inkscape:cy="503.43879"
     inkscape:window-width="1920"
     inkscape:window-height="984"
     inkscape:window-x="0"
     inkscape:window-y="55"
     inkscape:window-maximized="1"
     inkscape:current-layer="svg7" />
  <style
     id="style1">
    #light-icon {
      display: inline;
    }
    #dark-icon {
      display: none;
    }

    @media (prefers-color-scheme: dark) {
      #light-icon {
        display: none;
      }
      #dark-icon {
        display: inline;
      }
    }
  </style>
  <g
     id="light-icon">
    <svg
       version="1.1"
       width="1000"
       height="1000"
       id="svg3">
      <g
         clip-path="url(#SvgjsClipPath1059)"
         id="g3">
        <rect
           width="1000"
           height="1000"
           fill="#000000"
           id="rect1" />
        <g
           transform="matrix(5,0,0,5,192.5,150)"
           id="g2">
          <svg
             version="1.1"
             width="123"
             height="140"
             id="svg2">
            <svg
               width="123"
               height="140"
               viewBox="0 0 123 140"
               fill="none"
               version="1.1"
               id="svg1">
              <path
                 d="M 3.2266659,5.0005497 45.705359,73.072829 33.884108,95.479068 14.89394,95.304508 v 7.4e-4 l 18.990168,0.17455 -3.507006,6.647872 L 14.89394,95.305188 -4.5406701,95.126588 61.714784,135 127.54067,96.339048 109.05129,96.169358 94.637771,102.51336 78.812073,73.072279 120.75893,5.0000007 H 92.63815 L 61.296562,55.971458 31.477981,5.0000007 Z M 60.223206,87.888208 h 1.063464 l 2.83309,4.14894 10.307169,15.095812 -12.738401,5.60648 -13.117386,-5.7798 9.152175,-14.981062 h 7.44e-4 z"
                 fill="#ffffff"
                 stroke-miterlimit="20"
                 stroke-width="0"
                 id="path1" />
            </svg>
          </svg>
        </g>
      </g>
      <defs
         id="defs3">
        <clipPath
           id="SvgjsClipPath1059">
          <rect
             width="1000"
             height="1000"
             x="0"
             y="0"
             rx="350"
             ry="350"
             id="rect3" />
        </clipPath>
      </defs>
    </svg>
  </g>
  <g
     id="dark-icon">
    <svg
       version="1.1"
       width="1000"
       height="1000"
       id="svg6">
      <g
         clip-path="url(#SvgjsClipPath1060)"
         id="g6">
        <rect
           width="1000"
           height="1000"
           fill="#000000"
           id="rect4" />
        <g
           transform="matrix(5,0,0,5,192.5,150)"
           id="g5">
          <svg
             version="1.1"
             width="123"
             height="140"
             id="svg5">
            <svg
               width="123"
               height="140"
               viewBox="0 0 123 140"
               fill="none"
               version="1.1"
               id="svg4">
              <path
                 d="M 3.2266585,5.0005486 45.705352,73.072828 33.884102,95.479069 14.893933,95.304515 v 7.44e-4 L 33.884102,95.479806 30.377095,102.12767 14.893933,95.30519 -4.5406775,95.126597 61.714779,135 127.54068,96.339051 109.0513,96.16936 94.637765,102.51336 78.812068,73.072279 120.75892,5 H 92.638145 L 61.296556,55.971457 31.477974,5 Z M 60.223199,87.888209 h 1.063465 l 2.83309,4.148939 10.307169,15.095812 -12.738401,5.60648 -13.117387,-5.7798 9.152176,-14.981069 h 7.43e-4 z"
                 fill="#ffffff"
                 stroke-miterlimit="20"
                 stroke-width="0"
                 style="paint-order:markers fill stroke"
                 id="path4" />
            </svg>
          </svg>
        </g>
      </g>
      <defs
         id="defs6">
        <clipPath
           id="SvgjsClipPath1060">
          <rect
             width="1000"
             height="1000"
             x="0"
             y="0"
             rx="350"
             ry="350"
             id="rect6" />
        </clipPath>
      </defs>
    </svg>
  </g>
</svg>
