<svg id="b" version="1.1" viewBox="0 0 161 34" xml:space="preserve" xmlns="http://www.w3.org/2000/svg"><defs><style type="text/css"> .afiado_een{fill:#0B1719;} </style></defs><g transform="matrix(.77442 0 0 .77442 89.71 -68.5)" fill="#fff" stroke-miterlimit="20" stroke-width="0"><path d="m-50.153 88.453 8.169 13.091-2.2733 4.309-3.652-0.0336v1.3e-4l3.6519 0.0336-0.67442 1.2784-2.9775-1.312-3.7375-0.0344 12.741 7.6679 12.659-7.4347-3.5556-0.0327-2.7718 1.22-3.0434-5.6617 8.0668-13.091h-5.4077l-6.0271 9.802-5.7344-9.802zm10.961 15.94h0.2045l0.54485 0.79785 1.9821 2.903-2.4497 1.0781-2.5225-1.1115 1.76-2.8809h1.17e-4z" style="paint-order:markers fill stroke"/><path d="m-24.247 123.29v-30.545h11.186q3.2514 0 5.3842 1.0739 2.1328 1.059 3.1918 2.8786 1.059 1.8047 1.059 4.0717 0 1.9091-0.70099 3.2216-0.701 1.2976-1.8793 2.0881-1.1634 0.77557-2.5654 1.1335v0.2983q1.5213 0.0746 2.968 0.98437 1.4616 0.89489 2.4162 2.5504 0.95454 1.6555 0.95454 4.027 0 2.3416-1.1037 4.206-1.0888 1.8494-3.3707 2.9382-2.282 1.0739-5.8317 1.0739zm4.6087-3.9524h6.652q3.3111 0 4.7429-1.2827t1.4318-3.2067q0-1.4467-0.73083-2.6548-0.73082-1.2081-2.0881-1.924-1.3423-0.71591-3.1918-0.71591h-6.816zm0-13.379h6.1747q1.5511 0 2.7891-0.59659 1.2528-0.59659 1.9837-1.6704 0.74574-1.0888 0.74574-2.5653 0-1.8942-1.3274-3.1768-1.3274-1.2827-4.0717-1.2827h-6.294zm29.38 17.793q-3.3856 0-5.8317-1.4467-2.4311-1.4616-3.7585-4.1016-1.3125-2.6548-1.3125-6.2195 0-3.5199 1.3125-6.2045 1.3274-2.6847 3.6989-4.1911 2.3864-1.5064 5.5781-1.5064 1.9389 0 3.7585 0.64134 1.8196 0.64133 3.2663 2.0135t2.282 3.5646q0.83523 2.1776 0.83523 5.2948v1.581h-18.211v-3.3409h13.841q0-1.7599-0.71591-3.1172-0.71591-1.3722-2.0135-2.1626-1.2827-0.79048-3.0128-0.79048-1.8793 0-3.2812 0.92472-1.3871 0.9098-2.1477 2.3864-0.74573 1.4616-0.74573 3.1768v2.6101q0 2.2969 0.80539 3.9077 0.82032 1.6108 2.282 2.4609 1.4616 0.83523 3.4155 0.83523 1.2678 0 2.3118-0.35796 1.044-0.37287 1.8047-1.1037 0.76066-0.73083 1.1634-1.8047l4.2209 0.76066q-0.50711 1.8643-1.8196 3.2663-1.2976 1.3871-3.2663 2.1626-1.9538 0.76066-4.4595 0.76066zm16.255-14.065v13.602h-4.4595v-22.909h4.2805v3.7287h0.28338q0.79048-1.8196 2.4758-2.9233 1.7003-1.1037 4.2805-1.1037 2.3416 0 4.1016 0.98438 1.76 0.96946 2.7294 2.8935 0.96946 1.924 0.96946 4.7578v14.572h-4.4595v-14.035q0-2.4908-1.2976-3.8928-1.2976-1.4169-3.5646-1.4169-1.5511 0-2.7592 0.67116-1.1932 0.67117-1.8942 1.9688-0.68608 1.2827-0.68608 3.1023zm27.232 22.67q-2.7294 0-4.6982-0.71591-1.9538-0.71591-3.1918-1.8942-1.2379-1.1783-1.8494-2.5802l3.8331-1.581q0.4027 0.65625 1.0739 1.3871 0.68608 0.74573 1.8494 1.2678 1.1783 0.52202 3.0277 0.52202 2.5355 0 4.191-1.2379 1.6555-1.223 1.6555-3.9077v-4.5043h-0.28338q-0.4027 0.73082-1.1634 1.6257-0.74574 0.89489-2.0582 1.5511t-3.4155 0.65625q-2.7145 0-4.892-1.2678-2.1626-1.2827-3.4304-3.7734-1.2528-2.5057-1.2528-6.1598t1.2379-6.2642q1.2528-2.6101 3.4304-3.9972 2.1776-1.402 4.9368-1.402 2.1328 0 3.4453 0.71591 1.3125 0.70099 2.0433 1.6406 0.74574 0.93963 1.1484 1.6555h0.32812v-3.7138h4.37v23.416q0 2.9531-1.3722 4.8473t-3.7138 2.804q-2.3267 0.9098-5.25 0.9098zm-0.0447-13.11q1.924 0 3.2514-0.89488 1.3423-0.9098 2.0284-2.5952 0.70099-1.7003 0.70099-4.0717 0-2.3118-0.68608-4.0717-0.68607-1.7599-2.0135-2.7443-1.3274-0.99929-3.2812-0.99929-2.0135 0-3.3558 1.044-1.3423 1.0291-2.0284 2.804-0.67117 1.7748-0.67117 3.9673 0 2.2521 0.68608 3.9524t2.0284 2.6548q1.3572 0.95454 3.3409 0.95454zm20.028 4.549q-2.1776 0-3.9375-0.8054-1.7599-0.82031-2.7891-2.3714-1.0142-1.5511-1.0142-3.8033 0-1.9389 0.74574-3.1918 0.74574-1.2528 2.0135-1.9837 1.2678-0.73082 2.8338-1.1037t3.1918-0.56676q2.0582-0.23864 3.3409-0.38779 1.2827-0.16406 1.8644-0.52201 0.58168-0.35796 0.58168-1.1634v-0.1044q0-1.9538-1.1037-3.0277-1.0888-1.0739-3.2514-1.0739-2.2521 0-3.5497 0.99929-1.2827 0.98437-1.7749 2.1925l-4.191-0.95455q0.74574-2.0881 2.1776-3.3707 1.4467-1.2976 3.326-1.8793 1.8793-0.59659 3.9524-0.59659 1.3722 0 2.9084 0.32813 1.5511 0.31321 2.8935 1.1634 1.3572 0.85014 2.2223 2.4311 0.86506 1.566 0.86506 4.0717v15.213h-4.3551v-3.1321h-0.17897q-0.43253 0.86505-1.2976 1.7003t-2.2223 1.3871q-1.3572 0.55185-3.2514 0.55185zm0.96946-3.5795q1.8494 0 3.1619-0.73083 1.3274-0.73082 2.0135-1.9091 0.70099-1.1932 0.70099-2.5504v-2.9531q-0.23864 0.23864-0.92472 0.44744-0.67116 0.19389-1.5362 0.34304-0.86505 0.13424-1.6854 0.25355-0.82031 0.10441-1.3722 0.17898-1.2976 0.16406-2.3714 0.55185-1.059 0.38778-1.7003 1.1186-0.62642 0.7159-0.62642 1.9091 0 1.6555 1.223 2.5057 1.223 0.83523 3.1172 0.83523zm17.732-27.473v30.545h-4.4595v-30.545z" style="paint-order:markers fill stroke" aria-label="Bengal"/><path d="m-115.7 123.29v-30.545h11.186q3.2514 0 5.3842 1.0739 2.1328 1.059 3.1918 2.8786 1.059 1.8047 1.059 4.0717 0 1.9091-0.70099 3.2216-0.701 1.2976-1.8793 2.0881-1.1634 0.77557-2.5653 1.1335v0.2983q1.5213 0.0746 2.968 0.98437 1.4616 0.89489 2.4162 2.5504 0.95454 1.6555 0.95454 4.027 0 2.3416-1.1037 4.206-1.0888 1.8494-3.3707 2.9382-2.282 1.0739-5.8317 1.0739zm4.6087-3.9524h6.652q3.3111 0 4.7429-1.2827t1.4318-3.2067q0-1.4467-0.73083-2.6548-0.73082-1.2081-2.0881-1.924-1.3423-0.71591-3.1918-0.71591h-6.816zm0-13.379h6.1747q1.5511 0 2.7891-0.59659 1.2528-0.59659 1.9837-1.6704 0.74573-1.0888 0.74573-2.5653 0-1.8942-1.3274-3.1768-1.3274-1.2827-4.0717-1.2827h-6.294zm26.173 17.838q-2.1776 0-3.9375-0.8054-1.7599-0.82031-2.7891-2.3714-1.0142-1.5511-1.0142-3.8033 0-1.9389 0.74574-3.1918 0.74573-1.2528 2.0135-1.9837t2.8338-1.1037 3.1918-0.56676q2.0582-0.23864 3.3409-0.38779 1.2827-0.16406 1.8643-0.52201 0.58168-0.35796 0.58168-1.1634v-0.1044q0-1.9538-1.1037-3.0277-1.0888-1.0739-3.2514-1.0739-2.2521 0-3.5497 0.99929-1.2827 0.98437-1.7749 2.1925l-4.191-0.95455q0.74574-2.0881 2.1776-3.3707 1.4467-1.2976 3.326-1.8793 1.8793-0.59659 3.9524-0.59659 1.3722 0 2.9084 0.32813 1.5511 0.31321 2.8935 1.1634 1.3572 0.85014 2.2223 2.4311 0.86505 1.566 0.86505 4.0717v15.213h-4.3551v-3.1321h-0.17898q-0.43253 0.86505-1.2976 1.7003-0.86506 0.83523-2.2223 1.3871-1.3572 0.55185-3.2514 0.55185zm0.96946-3.5795q1.8494 0 3.1619-0.73083 1.3274-0.73082 2.0135-1.9091 0.701-1.1932 0.701-2.5504v-2.9531q-0.23864 0.23864-0.92472 0.44744-0.67117 0.19389-1.5362 0.34304-0.86506 0.13424-1.6854 0.25355-0.82031 0.10441-1.3722 0.17898-1.2976 0.16406-2.3714 0.55185-1.059 0.38778-1.7003 1.1186-0.62642 0.7159-0.62642 1.9091 0 1.6555 1.223 2.5057 1.223 0.83523 3.1172 0.83523zm15.256 11.663q-0.99929 0-1.8196-0.16407-0.82031-0.14914-1.223-0.32812l1.0739-3.6541q1.223 0.32813 2.1776 0.28338 0.95455-0.0447 1.6854-0.71591 0.74574-0.67116 1.3125-2.1925l0.55185-1.5213-8.3821-23.207h4.7727l5.8018 17.778h0.23864l5.8018-17.778h4.7876l-9.441 25.967q-0.65625 1.7898-1.6704 3.0277-1.0142 1.2528-2.4162 1.8793-1.402 0.62642-3.2514 0.62642z" style="paint-order:markers fill stroke" aria-label="Bay"/></g></svg>
