<svg version="1.1" viewBox="0 0 307 43" xml:space="preserve" xmlns="http://www.w3.org/2000/svg"><defs><style type="text/css"> .afiado_een{fill:#0B1719;} </style></defs><g stroke-linecap="round" stroke-linejoin="round" stroke-miterlimit="20"><g transform="translate(-39.14 -56.23)" fill="#fff"><path d="m14.932 10.439 3.6637 5.2297v-1.0372l-2.595 3.4535 1.0925 0.71679 2.2963-3.0908-0.635-0.01058 2.2062 2.9905 1.0244-0.67213-2.5003-3.3132v0.99483l3.5405-5.2615h-1.4431l-2.87 4.1925h0.62442l-2.9465-4.1925z" stroke-width=".30286" style="font-variation-settings:'wght' 600;paint-order:markers fill stroke" aria-label="X"/><path d="m13.187 17.367 5.733 4.548 5.16e-4 0.03566 0.02222-0.01757 0.02222 0.01757 5.17e-4 -0.03566 5.733-4.548h-1.7193l-4.0364 2.6484-4.0364-2.6484z" stroke-width=".265" style="font-variation-settings:'wght' 600;paint-order:markers fill stroke"/></g><g transform="matrix(1.3688 0 0 1.3688 -5.3191 -60.88)"><path d="m2.1475 1.5002c-0.76994 0-1.3811 0.39688-1.7066 1.0081v-2.5083h-0.39688v5.5563h0.39688v-0.92075c0.32544 0.61119 0.93663 1.0081 1.7066 1.0081 1.1351 0 2.0558-0.89694 2.0558-2.0717s-0.92075-2.0717-2.0558-2.0717zm-0.023813 3.7624c-0.94456 0-1.6828-0.74612-1.6828-1.6907s0.73819-1.6907 1.6828-1.6907 1.6828 0.74612 1.6828 1.6907-0.73819 1.6907-1.6828 1.6907zm6.1357-3.6751v0.89694c-0.33338-0.59531-0.94456-0.98425-1.7066-0.98425-1.1271 0-2.0558 0.89694-2.0558 2.0717s0.92869 2.0717 2.0558 2.0717c0.762 0 1.3732-0.38894 1.7066-0.98425v0.89694h0.40481v-3.9688zm-1.6748 3.6751c-0.94456 0-1.6828-0.74612-1.6828-1.6907s0.73819-1.6907 1.6828-1.6907 1.6748 0.74612 1.6748 1.6907-0.73025 1.6907-1.6748 1.6907zm5.8103-3.6751-1.3811 3.5322-1.6034-3.5322h-0.42862l1.8256 4.0402-0.08731 0.21431c-0.24606 0.57944-0.65088 0.97631-1.1827 0.92869v0.37306c0.68262 0.055562 1.27-0.46038 1.5716-1.2224l1.7145-4.3339z" fill="#fff" stroke-width=".265" style="paint-order:markers fill stroke" aria-label="bay"/><path d="m19.887 0v5.5562h0.39688v-0.92087c0.32544 0.61119 0.93642 1.0082 1.7064 1.0082 1.1351 0 2.0557-0.89696 2.0557-2.0717s-0.92063-2.0717-2.0557-2.0717c-0.76994 0-1.3809 0.39702-1.7064 1.0082v-2.5084zm22.66 0v5.5562h0.39688v-5.5562zm-16.151 1.5002c-1.2144 9.4e-6 -2.0557 0.9049-2.0557 2.0717 0 1.1986 0.86484 2.0717 2.0872 2.0717 0.78581 0 1.4052-0.35735 1.7306-0.8971l-0.34933-0.20619c-0.23019 0.42069-0.72217 0.72244-1.373 0.72244-0.90488 0-1.5879-0.58773-1.6831-1.4847h3.5956c0-0.0635 0.0083-0.12667 0.0083-0.19017 0-1.0874-0.75411-2.0877-1.9606-2.0877zm4.3098 0c-0.61119 0-1.119 0.25392-1.4206 0.84129v-0.75396h-0.39688v3.9687h0.39688v-2.0955c0-1.0716 0.61119-1.5797 1.3891-1.5797 0.74612 0 1.1669 0.47639 1.1669 1.2066v2.4686h0.40463v-2.4686c0-0.96044-0.5954-1.5875-1.54-1.5875zm4.0799 0c-1.1351 0-2.0557 0.89696-2.0557 2.0717s0.92063 2.0717 2.0557 2.0717c0.76994 0 1.3814-0.39702 1.7069-1.0082v0.73019c0 0.90488-0.58756 1.4847-1.5797 1.4847-0.87312 0-1.3176-0.34929-1.5239-0.76998l-0.34933 0.19844c0.28575 0.57944 0.94458 0.9524 1.8733 0.9524 1.0954 0 1.9766-0.67489 1.9766-1.8655v-3.7781h-0.39688v0.92087c-0.32544-0.61119-0.93694-1.0082-1.7069-1.0082zm4.715 0c-1.1271 0-2.0557 0.89696-2.0557 2.0717s0.92856 2.0717 2.0557 2.0717c0.762 0 1.3735-0.38912 1.7069-0.98444v0.8971h0.40463v-3.9687h-0.40463v0.8971c-0.33338-0.59531-0.94487-0.98444-1.7069-0.98444zm-17.534 0.38086c0.94456 0 1.6826 0.74629 1.6826 1.6909s-0.73802 1.6909-1.6826 1.6909c-0.94456 0-1.6826-0.74629-1.6826-1.6909s0.73802-1.6909 1.6826-1.6909zm4.4292 0c0.77788 0 1.4604 0.54006 1.5477 1.5084h-3.191c0.07937-0.88106 0.73844-1.5084 1.6433-1.5084zm8.4134 0c0.94456 0 1.6831 0.74629 1.6831 1.6909s-0.73854 1.6909-1.6831 1.6909c-0.94456 0-1.6826-0.74629-1.6826-1.6909s0.73802-1.6909 1.6826-1.6909zm4.7232 0c0.94456 0 1.6748 0.74629 1.6748 1.6909s-0.73027 1.6909-1.6748 1.6909c-0.94456 0-1.6831-0.74629-1.6831-1.6909s0.73854-1.6909 1.6831-1.6909z" fill="#fff" stroke-width=".265" style="paint-order:markers fill stroke"/><path d="m14.911 5.5562c1.1509 0 2.0796-0.86848 2.0796-2.006 0-1.1375-0.92869-2.006-2.0796-2.006-1.1589 0-2.0876 0.86848-2.0876 2.006 0 1.1375 0.92869 2.006 2.0876 2.006zm0-0.36891c-0.94456 0-1.6828-0.72246-1.6828-1.6371 0-0.9146 0.73819-1.6371 1.6828-1.6371 0.94456 0 1.6748 0.72246 1.6748 1.6371 0 0.9146-0.73025 1.6371-1.6748 1.6371zm4.2175-4.8113v-0.36891c-1.0398-0.076857-1.5875 0.46883-1.5875 1.4142v0.20751h-0.68262v0.3766h0.68262v3.4663h0.40481v-3.4663h1.1827v-0.3766h-1.1827v-0.20751c0-0.74551 0.37306-1.1067 1.1827-1.0453z" fill="#b3b3b3" stroke-width=".26076" style="paint-order:markers fill stroke" aria-label="of"/></g><g transform="translate(-5.8462 -46.16)" font-family="Gilroy" font-size="7.9375px" font-weight="300" stroke-width=".265" word-spacing="0px"><text x="12.788538" y="5.7229276" fill="#b3b3b3" letter-spacing="-.52917px" style="font-variant-caps:normal;font-variant-east-asian:normal;font-variant-ligatures:normal;font-variant-numeric:normal;line-height:5.29167px;paint-order:markers fill stroke" xml:space="preserve"><tspan x="12.788538" y="5.7229276">of</tspan></text><text x="-0.56936932" y="5.556241" fill="#ffffff" letter-spacing="-.26458px" style="font-variant-caps:normal;font-variant-east-asian:normal;font-variant-ligatures:normal;font-variant-numeric:normal;line-height:5.29167px;paint-order:markers fill stroke" xml:space="preserve"><tspan x="-0.56936932" y="5.556241">bay</tspan></text><text x="19.607773" y="5.7943711" fill="#ffffff" letter-spacing="-.26458px" style="font-variant-caps:normal;font-variant-east-asian:normal;font-variant-ligatures:normal;font-variant-numeric:normal;line-height:5.29167px;paint-order:markers fill stroke" xml:space="preserve"><tspan x="19.607773" y="5.7943711">bengal</tspan></text></g><g transform="translate(93.2 -34.318)"><path d="m6.5187-45.892 12.281 17.529-8.2869 11.032-4.0904-2.6832h-6.4222l21.415 16.989 0.0019 0.13319 0.083-0.065613 0.083 0.065613 0.0019-0.13319 21.415-16.989h-6.4222l-3.712 2.4361-8.0186-10.625 11.904-17.69h-5.3914l-9.5686 13.979-9.8254-13.979zm15.475 21.276 7.0457 9.5474v0.0019l-7.5399 4.9455-6.9067-4.5324z" fill="#fff" stroke-width="1.1313" style="font-variation-settings:'wght' 600;paint-order:markers fill stroke"/><g transform="matrix(4.3426 0 0 4.3426 -9.1878 6.9712)"><path d="m16.844-10.118c-1.0539 0-1.8905 0.54325-2.336 1.3799v-3.4333h-0.54325v7.6055h0.54325v-1.2603c0.44547 0.83661 1.2821 1.3799 2.336 1.3799 1.5537 0 2.814-1.2277 2.814-2.8358 0-1.608-1.2603-2.8358-2.814-2.8358zm-0.0326 5.15c-1.2929 0-2.3034-1.0213-2.3034-2.3142 0-1.2929 1.0104-2.3142 2.3034-2.3142s2.3034 1.0213 2.3034 2.3142c0 1.2929-1.0104 2.3142-2.3034 2.3142zm8.3987-5.0305v1.2277c-0.45633-0.81488-1.2929-1.3473-2.336-1.3473-1.5428 0-2.814 1.2277-2.814 2.8358 0 1.608 1.2712 2.8358 2.814 2.8358 1.043 0 1.8796-0.53239 2.336-1.3473v1.2277h0.55412v-5.4325zm-2.2925 5.0305c-1.2929 0-2.3034-1.0213-2.3034-2.3142 0-1.2929 1.0104-2.3142 2.3034-2.3142 1.2929 0 2.2925 1.0213 2.2925 2.3142 0 1.2929-0.99958 2.3142-2.2925 2.3142zm7.9532-5.0305-1.8905 4.8349-2.1947-4.8349h-0.58671l2.499 5.5303-0.11951 0.29336c-0.33682 0.79315-0.89093 1.3364-1.6189 1.2712v0.51066c0.93439 0.076054 1.7384-0.63017 2.1513-1.6732l2.3468-5.9323z" fill="#fff" stroke-width=".36274" style="paint-order:markers fill stroke" aria-label="bay"/><path d="m41.126-12.171v7.6055h0.54325v-1.2605c0.44547 0.83661 1.2818 1.3801 2.3357 1.3801 1.5537 0 2.8139-1.2278 2.8139-2.8358 0-1.608-1.2602-2.8358-2.8139-2.8358-1.0539 0-1.8902 0.54345-2.3357 1.3801v-3.4335zm31.018 0v7.6055h0.54325v-7.6055zm-22.108 2.0535c-1.6623 1.3e-5 -2.8139 1.2386-2.8139 2.8358 0 1.6406 1.1838 2.8358 2.857 2.8358 1.0756 0 1.9235-0.48915 2.3689-1.228l-0.47817-0.28224c-0.31509 0.57585-0.98852 0.98889-1.8794 0.98889-1.2386 0-2.1735-0.80449-2.3039-2.0322h4.9218c0-0.08692 0.01136-0.17339 0.01136-0.26031 0-1.4885-1.0322-2.8577-2.6837-2.8577zm5.8994 0c-0.83661 0-1.5317 0.34757-1.9445 1.1516v-1.032h-0.54325v5.4325h0.54325v-2.8683c0-1.4668 0.8366-2.1624 1.9014-2.1624 1.0213 0 1.5972 0.6521 1.5972 1.6517v3.379h0.55386v-3.379c0-1.3147-0.81499-2.173-2.1079-2.173zm5.5846 0c-1.5537 0-2.8139 1.2278-2.8139 2.8358 0 1.608 1.2602 2.8358 2.8139 2.8358 1.0539 0 1.8909-0.54345 2.3364-1.3801v0.9995c0 1.2386-0.80426 2.0322-2.1624 2.0322-1.1952 0-1.8035-0.47812-2.086-1.054l-0.47817 0.27163c0.39114 0.79315 1.293 1.3037 2.5642 1.3037 1.4994 0 2.7056-0.92381 2.7056-2.5536v-5.1715h-0.54325v1.2605c-0.44547-0.8366-1.2825-1.3801-2.3364-1.3801zm6.4539 0c-1.5428 0-2.8139 1.2278-2.8139 2.8358 0 1.608 1.271 2.8358 2.8139 2.8358 1.043 0 1.8801-0.53264 2.3364-1.3475v1.228h0.55386v-5.4325h-0.55386v1.228c-0.45633-0.81488-1.2934-1.3475-2.3364-1.3475zm-24.001 0.52132c1.2929 0 2.3032 1.0215 2.3032 2.3145 0 1.2929-1.0102 2.3145-2.3032 2.3145-1.2929 0-2.3032-1.0215-2.3032-2.3145 0-1.2929 1.0102-2.3145 2.3032-2.3145zm6.0628 0c1.0648 0 1.999 0.73924 2.1185 2.0648h-4.3679c0.10864-1.206 1.0108-2.0648 2.2494-2.0648zm11.516 0c1.2929 0 2.3039 1.0215 2.3039 2.3145 0 1.2929-1.0109 2.3145-2.3039 2.3145-1.2929 0-2.3032-1.0215-2.3032-2.3145 0-1.2929 1.0102-2.3145 2.3032-2.3145zm6.4652 0c1.2929 0 2.2925 1.0215 2.2925 2.3145 0 1.2929-0.99961 2.3145-2.2925 2.3145-1.2929 0-2.3039-1.0215-2.3039-2.3145 0-1.2929 1.0109-2.3145 2.3039-2.3145z" fill="#fff" stroke-width=".36274" style="paint-order:markers fill stroke"/><path d="m34.315-4.5658c1.5754 0 2.8466-1.1888 2.8466-2.7458 0-1.557-1.2712-2.7458-2.8466-2.7458-1.5863 0-2.8575 1.1888-2.8575 2.7458 0 1.557 1.2712 2.7458 2.8575 2.7458zm0-0.50498c-1.2929 0-2.3034-0.98891-2.3034-2.2408s1.0104-2.2408 2.3034-2.2408c1.2929 0 2.2925 0.98891 2.2925 2.2408s-0.99958 2.2408-2.2925 2.2408zm5.7729-6.5857v-0.50498c-1.4233-0.1052-2.173 0.64174-2.173 1.9357v0.28405h-0.93439v0.5155h0.93439v4.7447h0.55412v-4.7447h1.6189v-0.5155h-1.6189v-0.28405c0-1.0205 0.51066-1.5149 1.6189-1.4308z" fill="#b3b3b3" stroke-width=".35694" style="paint-order:markers fill stroke" aria-label="of"/></g></g><g transform="translate(.26992 45.892)"><path d="m6.5187-45.892 12.281 17.529-8.2869 11.032-4.0904-2.6832h-6.4222l21.415 16.989 0.0019 0.13319 0.083-0.065613 0.083 0.065613 0.0019-0.13319 21.415-16.989h-6.4222l-3.712 2.4361-8.0186-10.625 11.904-17.69h-5.3914l-9.5686 13.979-9.8254-13.979zm15.475 21.276 7.0457 9.5474v0.0019l-7.5399 4.9455-6.9067-4.5324z" fill="#fff" stroke-width="1.1313" style="font-variation-settings:'wght' 600;paint-order:markers fill stroke"/><g transform="matrix(4.3426 0 0 4.3426 -9.1878 6.9712)"><path d="m16.844-10.118c-1.0539 0-1.8905 0.54325-2.336 1.3799v-3.4333h-0.54325v7.6055h0.54325v-1.2603c0.44547 0.83661 1.2821 1.3799 2.336 1.3799 1.5537 0 2.814-1.2277 2.814-2.8358 0-1.608-1.2603-2.8358-2.814-2.8358zm-0.0326 5.15c-1.2929 0-2.3034-1.0213-2.3034-2.3142 0-1.2929 1.0104-2.3142 2.3034-2.3142s2.3034 1.0213 2.3034 2.3142c0 1.2929-1.0104 2.3142-2.3034 2.3142zm8.3987-5.0305v1.2277c-0.45633-0.81488-1.2929-1.3473-2.336-1.3473-1.5428 0-2.814 1.2277-2.814 2.8358 0 1.608 1.2712 2.8358 2.814 2.8358 1.043 0 1.8796-0.53239 2.336-1.3473v1.2277h0.55412v-5.4325zm-2.2925 5.0305c-1.2929 0-2.3034-1.0213-2.3034-2.3142 0-1.2929 1.0104-2.3142 2.3034-2.3142 1.2929 0 2.2925 1.0213 2.2925 2.3142 0 1.2929-0.99958 2.3142-2.2925 2.3142zm7.9532-5.0305-1.8905 4.8349-2.1947-4.8349h-0.58671l2.499 5.5303-0.11951 0.29336c-0.33682 0.79315-0.89093 1.3364-1.6189 1.2712v0.51066c0.93439 0.076054 1.7384-0.63017 2.1513-1.6732l2.3468-5.9323z" fill="#fff" stroke-width=".36274" style="paint-order:markers fill stroke" aria-label="bay"/><path d="m41.126-12.171v7.6055h0.54325v-1.2605c0.44547 0.83661 1.2818 1.3801 2.3357 1.3801 1.5537 0 2.8139-1.2278 2.8139-2.8358 0-1.608-1.2602-2.8358-2.8139-2.8358-1.0539 0-1.8902 0.54345-2.3357 1.3801v-3.4335zm31.018 0v7.6055h0.54325v-7.6055zm-22.108 2.0535c-1.6623 1.3e-5 -2.8139 1.2386-2.8139 2.8358 0 1.6406 1.1838 2.8358 2.857 2.8358 1.0756 0 1.9235-0.48915 2.3689-1.228l-0.47817-0.28224c-0.31509 0.57585-0.98852 0.98889-1.8794 0.98889-1.2386 0-2.1735-0.80449-2.3039-2.0322h4.9218c0-0.08692 0.01136-0.17339 0.01136-0.26031 0-1.4885-1.0322-2.8577-2.6837-2.8577zm5.8994 0c-0.83661 0-1.5317 0.34757-1.9445 1.1516v-1.032h-0.54325v5.4325h0.54325v-2.8683c0-1.4668 0.8366-2.1624 1.9014-2.1624 1.0213 0 1.5972 0.6521 1.5972 1.6517v3.379h0.55386v-3.379c0-1.3147-0.81499-2.173-2.1079-2.173zm5.5846 0c-1.5537 0-2.8139 1.2278-2.8139 2.8358 0 1.608 1.2602 2.8358 2.8139 2.8358 1.0539 0 1.8909-0.54345 2.3364-1.3801v0.9995c0 1.2386-0.80426 2.0322-2.1624 2.0322-1.1952 0-1.8035-0.47812-2.086-1.054l-0.47817 0.27163c0.39114 0.79315 1.293 1.3037 2.5642 1.3037 1.4994 0 2.7056-0.92381 2.7056-2.5536v-5.1715h-0.54325v1.2605c-0.44547-0.8366-1.2825-1.3801-2.3364-1.3801zm6.4539 0c-1.5428 0-2.8139 1.2278-2.8139 2.8358 0 1.608 1.271 2.8358 2.8139 2.8358 1.043 0 1.8801-0.53264 2.3364-1.3475v1.228h0.55386v-5.4325h-0.55386v1.228c-0.45633-0.81488-1.2934-1.3475-2.3364-1.3475zm-24.001 0.52132c1.2929 0 2.3032 1.0215 2.3032 2.3145 0 1.2929-1.0102 2.3145-2.3032 2.3145-1.2929 0-2.3032-1.0215-2.3032-2.3145 0-1.2929 1.0102-2.3145 2.3032-2.3145zm6.0628 0c1.0648 0 1.999 0.73924 2.1185 2.0648h-4.3679c0.10864-1.206 1.0108-2.0648 2.2494-2.0648zm11.516 0c1.2929 0 2.3039 1.0215 2.3039 2.3145 0 1.2929-1.0109 2.3145-2.3039 2.3145-1.2929 0-2.3032-1.0215-2.3032-2.3145 0-1.2929 1.0102-2.3145 2.3032-2.3145zm6.4652 0c1.2929 0 2.2925 1.0215 2.2925 2.3145 0 1.2929-0.99961 2.3145-2.2925 2.3145-1.2929 0-2.3039-1.0215-2.3039-2.3145 0-1.2929 1.0109-2.3145 2.3039-2.3145z" fill="#fff" stroke-width=".36274" style="paint-order:markers fill stroke"/><path d="m34.315-4.5658c1.5754 0 2.8466-1.1888 2.8466-2.7458 0-1.557-1.2712-2.7458-2.8466-2.7458-1.5863 0-2.8575 1.1888-2.8575 2.7458 0 1.557 1.2712 2.7458 2.8575 2.7458zm0-0.50498c-1.2929 0-2.3034-0.98891-2.3034-2.2408s1.0104-2.2408 2.3034-2.2408c1.2929 0 2.2925 0.98891 2.2925 2.2408s-0.99958 2.2408-2.2925 2.2408zm5.7729-6.5857v-0.50498c-1.4233-0.1052-2.173 0.64174-2.173 1.9357v0.28405h-0.93439v0.5155h0.93439v4.7447h0.55412v-4.7447h1.6189v-0.5155h-1.6189v-0.28405c0-1.0205 0.51066-1.5149 1.6189-1.4308z" fill="#b3b3b3" stroke-width=".35694" style="paint-order:markers fill stroke" aria-label="of"/></g></g></g></svg>
