<svg version="1.1" viewBox="0 0 289 42" xmlns="http://www.w3.org/2000/svg"><g transform="translate(1 -.5)" fill="#fff" stroke-linecap="round" stroke-linejoin="round" stroke-miterlimit="20"><path d="m5.7634 0.5 11.994 17.124-8.0965 10.773-3.993-2.6193h-6.2726l20.916 16.593 2e-3 0.12971 0.08202-0.06294 0.08012 0.06294 2e-3 -0.12971 20.918-16.593h-6.2744l-3.6246 2.3789-7.8312-10.378 11.626-17.278h-5.2652l-9.3479 13.655-9.5957-13.655zm15.115 20.782 6.8793 9.3249-7.0353 3.5252-7.0743-3.121z" stroke-width="1.105" style="font-variation-settings:'wght' 600;paint-order:markers fill stroke"/><g transform="matrix(1.0679 0 0 1.0679 -.61074 2.4998)" stroke-width="1.002"><path d="m265.57 28v-28h4.32v28z" stroke-width=".9812" style="paint-order:markers fill stroke" aria-label="l"/><path d="m60.955 7.4799q4.12 0 7.04 3.04t2.92 7.48q0 4.4-2.92 7.48-2.92 3.04-7.04 3.04-4.56 0-7-3.4v2.88h-4.32v-28h4.32v10.84q2.44-3.36 7-3.36zm-5.2 15.12q1.8 1.8 4.52 1.8t4.52-1.8q1.8-1.84 1.8-4.6t-1.8-4.56q-1.8-1.84-4.52-1.84t-4.52 1.84q-1.8 1.8-1.8 4.56t1.8 4.6zm33.42-14.6h4.32v20h-4.32v-2.88q-2.44 3.4-7 3.4-4.12 0-7.04-3.04-2.92-3.08-2.92-7.48 0-4.44 2.92-7.48t7.04-3.04q4.56 0 7 3.36zm-10.84 14.6q1.8 1.8 4.52 1.8t4.52-1.8q1.8-1.84 1.8-4.6t-1.8-4.56q-1.8-1.84-4.52-1.84t-4.52 1.84q-1.8 1.8-1.8 4.56t1.8 4.6zm32.18-14.6h4.6l-7.68 20.64q-2.88 7.76-9.76 7.36v-4.04q2.04 0.12 3.28-0.88 1.24-0.96 2.04-3.04l0.2-0.4-8.48-19.64h4.72l5.96 14.52z" style="paint-order:markers fill stroke" aria-label="bay"/><path d="m162.28 7.4799q4.12 0 7.04 3.04t2.92 7.48q0 4.4-2.92 7.48-2.92 3.04-7.04 3.04-4.56 0-7-3.4v2.88h-4.32v-28h4.32v10.84q2.44-3.36 7-3.36zm-5.2 15.12q1.8 1.8 4.52 1.8t4.52-1.8q1.8-1.84 1.8-4.6t-1.8-4.56q-1.8-1.84-4.52-1.84t-4.52 1.84q-1.8 1.8-1.8 4.56t1.8 4.6zm20.98-2.76q0.48 2.28 2.2 3.52 1.72 1.2 4.2 1.2 3.44 0 5.16-2.48l3.56 2.08q-2.96 4.36-8.76 4.36-4.88 0-7.88-2.96-3-3-3-7.56 0-4.48 2.96-7.48 2.96-3.04 7.6-3.04 4.4 0 7.2 3.08 2.84 3.08 2.84 7.48 0 0.68-0.16 1.8zm-0.04-3.52h11.76q-0.44-2.44-2.04-3.68-1.56-1.24-3.68-1.24-2.4 0-4 1.32t-2.04 3.6zm28.94-8.84q3.44 0 5.56 2.2t2.12 6.04v12.28h-4.32v-11.84q0-2.24-1.2-3.44t-3.28-1.2q-2.28 0-3.68 1.44-1.4 1.4-1.4 4.32v10.72h-4.32v-20h4.32v2.56q1.96-3.08 6.2-3.08zm26.74 0.52h4.24v19.08q0 4.56-3 7t-7.28 2.44q-6.92 0-9.48-4.84l3.72-2.16q1.56 3.08 5.84 3.08 2.8 0 4.36-1.48 1.6-1.44 1.6-4.04v-2.44q-2.44 3.48-6.96 3.48-4.24 0-7.16-3-2.92-3.04-2.92-7.32t2.92-7.28q2.92-3.04 7.16-3.04 4.52 0 6.96 3.48zm-10.92 14.28q1.84 1.8 4.56 1.8t4.52-1.8q1.84-1.8 1.84-4.48t-1.84-4.48q-1.8-1.8-4.52-1.8t-4.56 1.8q-1.8 1.8-1.8 4.48t1.8 4.48zm34.54-14.28h4.32v20h-4.32v-2.88q-2.44 3.4-7 3.4-4.12 0-7.04-3.04-2.92-3.08-2.92-7.48 0-4.44 2.92-7.48t7.04-3.04q4.56 0 7 3.36zm-10.84 14.6q1.8 1.8 4.52 1.8t4.52-1.8q1.8-1.84 1.8-4.6t-1.8-4.56q-1.8-1.84-4.52-1.84t-4.52 1.84q-1.8 1.8-1.8 4.56t1.8 4.6z" style="paint-order:markers fill stroke" aria-label="benga"/><path d="m132.79 26.24q-3.04 3-7.4 3t-7.4-3-3.04-7.4 3.04-7.4 7.4-3 7.4 3 3.04 7.4-3.04 7.4zm-14.24-0.52q2.8 2.8 6.84 2.8t6.84-2.8 2.8-6.88-2.8-6.88-6.84-2.8-6.84 2.8-2.8 6.88 2.8 6.88zm28.94-24.56q-6.36-0.52-6.36 6.08v1.6h6.36v0.72h-6.36v19.28h-0.8v-19.28h-3.6v-0.72h3.6v-1.6q0-3.44 1.76-5.24 1.8-1.84 5.4-1.56z" style="paint-order:markers fill stroke" aria-label="of"/></g></g></svg>
